<svg xmlns="http://www.w3.org/2000/svg" viewBox="0 0 560.44 238.19"><defs><style>.cls-1{fill:none;stroke:#fff;stroke-width:19px;}</style></defs><title>Fichier 1</title><g id="Calque_2" data-name="Calque 2"><g id="Calque_2-2" data-name="Calque 2"><path class="cls-1" d="M215.42,228.69a45.23,45.23,0,0,1-14.59-2.51,39.34,39.34,0,0,1-12.49-6.57,33.09,33.09,0,0,1-12.47-26.22,40,40,0,0,1,3.59-16.51A42,42,0,0,1,168,171.49c-9.63,8-19.37,12-29.44,12-8.35,0-16.37-3-23.83-8.93l-.21-.17-.2-.17a36.09,36.09,0,0,1-4.22-4.16q-5.52,2.76-11.63,5.17a125.38,125.38,0,0,1-45.81,8.94,98.06,98.06,0,0,1-25.51-3c-10-2.59-14.2-9.27-15.85-13a23,23,0,0,1,1.23-20.35l.3-.55.33-.53c.57-.9,1.19-1.81,1.84-2.75a24.41,24.41,0,0,1,3.84-17.58c14.2-22.09,29.6-44.78,45.88-67.6-.68-1.61-1.32-3.3-1.92-5.09l-.15-.44A22.32,22.32,0,0,1,64.17,36c2.09-4,6.44-9.29,15.27-12l.26-.08A126.23,126.23,0,0,1,115.24,19c15.28,0,27.18,2.61,36.38,8a40.15,40.15,0,0,1,12.26,10.8q4-5.74,7.66-11a22.13,22.13,0,0,1,18.31-9.6A23.26,23.26,0,0,1,198.79,19l.4.17.39.18a55.16,55.16,0,0,1,12.1,7.37A27.31,27.31,0,0,1,221.48,48c0,7.07-2.64,14.84-8.76,25.63a39.57,39.57,0,0,1,15,4.09,38.09,38.09,0,0,1,10,6.85,30.3,30.3,0,0,1,5.11,4.22A76.69,76.69,0,0,1,260.52,79a72.58,72.58,0,0,1,26.64-5.39,41.62,41.62,0,0,1,5.65.36,22.11,22.11,0,0,1,6.81-13.16C311.42,49,314.13,42.92,314.7,41.26c5.27-16.22,16.94-18,21.72-18,4,0,7.1,1,15.64,4.08l.35.13a25.28,25.28,0,0,1,13.66,12.1Q376.18,30,385.82,21.38l.2-.17c7-6.08,14.76-11.71,24.17-11.71a26.39,26.39,0,0,1,10.05,2.09c.37.15,1.31.53,3.7,1.39,1.59.57,3.35,1.14,5.27,1.69C440.45,17.81,448,26.53,449,37.44c.5,5.77-.72,12.25-4.06,21.67-.82,2.47-1.65,4.93-2.49,7.4,1.15.44,2.28.93,3.37,1.46q5.19-3.33,11-6.66l.28-.16c5.17-2.87,9.57-5.07,15.16-5.07a21.75,21.75,0,0,1,4.17.41c3.46-5.2,5.27-8.25,6.22-10l.13-.25a58.09,58.09,0,0,1,3.9-6.45,21.73,21.73,0,0,1,17.71-9.18c5,0,10.06,1.49,17.35,5.13,15.26,7.48,17.58,19.5,17.76,25.11a20.88,20.88,0,0,1,10.94,23.53,27.94,27.94,0,0,1-6.17,13.05l-.19.22c-5,5.54-11.88,7.8-18,9.28l-.71.17-.62.11-1.07.2a20.89,20.89,0,0,1,6.2,20.6l-.21.87-.3.84a44.61,44.61,0,0,1-6.14,12.45,55.64,55.64,0,0,1-9.53,9.84l-.11.08C498,164.5,484.07,170.54,471,170.54c-8.78,0-21.5-3.23-32.71-18.41a23.88,23.88,0,0,1-2.24-3.11c-.32.42-.63.85-.95,1.28-5.23,7.2-7.47,9.84-9.2,11.58a25.39,25.39,0,0,1-18,7.64,30.17,30.17,0,0,1-10.6-2,31.19,31.19,0,0,1-2.22,2.38l-.65.62-.7.55c-6.43,5.15-14.18,5.74-19.45,5.74a22.59,22.59,0,0,1-13.9-4.28c-5.74-4.32-10.51-12.89-6.78-24.08l.28-.84.35-.8q2.5-5.79,5-11.84a276.4,276.4,0,0,0-17.11,23.69c-7.4,12.23-17.12,14.07-22.28,14.07a24,24,0,0,1-6.85-1c-3.75,3.8-9.73,7.5-19,8.11l-1,0a207.3,207.3,0,0,1-25.59,26.65C250.22,221.25,232.71,228.69,215.42,228.69Z"/><path d="M52.68,164.15a77.43,77.43,0,0,1-20.4-2.38c-2.72-.68-3.45-2.15-2.21-4.42a89.15,89.15,0,0,1,9.69-12.07q-3.9-2.39-4.76-4.08c-.56-1.13-.34-2.49.68-4.08Q60.16,99,88.72,59.6q-3.9-3.41-7-12.41-.84-2.71,3.57-4.08A106.11,106.11,0,0,1,115.24,39q17.34,0,26.35,5.27a19.72,19.72,0,0,1,9.86,13.86,22.4,22.4,0,0,1-2.72,16.74q-10,17-26.52,24.65,8.51,5.78,9.69,14.11,1.71,12.24-10.2,24.14Q110.48,149,91.19,156.58A104.71,104.71,0,0,1,52.68,164.15Zm7.82-22.27q24.48-.67,41.06-8.59t18.1-19.46q-6.8-8.16-34-9.52Q73.6,123.18,60.5,141.88Zm34.17-52Q114.23,86.8,127.14,79t16.32-17.51q-3.57-4.59-17.17-4.59a63.11,63.11,0,0,0-20.06,3.4q2,4.94.34,8.5Q102.84,76.43,94.67,89.86Zm43.91,73.61q-5.61,0-11.39-4.59a13.85,13.85,0,0,1-5.27-11q0-10.71,9.69-25.67,33.49-51.51,56.27-83.81a2.41,2.41,0,0,1,3.23-.85,36.4,36.4,0,0,1,7.74,4.59A7.38,7.38,0,0,1,201.48,48q0,5.45-7.56,18.19t-36.47,55.93q-13.94,20.75-13.26,28.05,4.59.51,12.84-6.21t19.63-21.84l.51-.68c.91-1.25,1.59-1.64,2-1.19l.51.51a2.48,2.48,0,0,1,.34,3.23l-.51.85Q156.6,163.48,138.58,163.47Zm52.53-4.93q-9.35,0-16.66-7.65a22.14,22.14,0,0,1-5.95-15.56q0-9.09,7.48-19.12a68.93,68.93,0,0,1,16.58-15.89q9.76-6.72,17.93-6.72a19.17,19.17,0,0,1,8.42,2.12,15,15,0,0,1,6,4.68q6.8,2.71,6.8,13.09a35.18,35.18,0,0,1-.34,4.08q13.93-1,26.35-13.43l.68-.68c1-1,1.81-1.19,2.38-.51l.34.51a2.17,2.17,0,0,1-.17,2.89l-.68.85A51.2,51.2,0,0,1,247,118.76a39.41,39.41,0,0,1-17.51,5.95,55.65,55.65,0,0,1-4.76,10.37,53.47,53.47,0,0,1-15.13,17.17A31.5,31.5,0,0,1,191.11,158.54ZM195.87,130q-6.28,9.69-5.1,16.49a41.64,41.64,0,0,0,16.15-8.33A60.65,60.65,0,0,0,219.84,124a13.13,13.13,0,0,1-7.56-4.25,10.55,10.55,0,0,1-2.47-6.8A85.93,85.93,0,0,0,195.87,130Zm21.25-21.08q0,6.12,6.29,8a22.94,22.94,0,0,0,1.36-7.14c0-2.61-.79-4.19-2.38-4.76a26.23,26.23,0,0,0-5.1,2.38,6.41,6.41,0,0,1-.08.68A5,5,0,0,0,217.12,108.9Zm-1.7,99.79a25.37,25.37,0,0,1-8.16-1.44A20.38,20.38,0,0,1,201,204.1a13.05,13.05,0,0,1-5.1-10.71q0-7.48,5.53-14.19a40.2,40.2,0,0,1,15-11q14.63-6.63,45.22-12.07,5.77-7.82,8.5-12.07a42.74,42.74,0,0,1-13.26,7.65,12.14,12.14,0,0,1-11.73-1.7q-9.85-4.42-9.86-14.28,0-12.91,14.79-27a55.88,55.88,0,0,1,17.77-11.14,52.54,52.54,0,0,1,19.29-4q8.16,0,9.35,4.08a12.5,12.5,0,0,0,1,3.06,32.25,32.25,0,0,1,7.82,1.7q7.48,2.9,7.48,6.8,0,2.9-6.8,15.64a274,274,0,0,1-17.68,28.22,90.29,90.29,0,0,1,11.22,0q2,.35.17,3.4c-1.13,2-3.46,3.17-7,3.4-4.53.23-7.88.51-10,.85q-14.28,18.7-28.22,30.6Q234.12,208.69,215.42,208.69ZM231.57,188q9.69-6.47,22.78-22.44Q234,171.12,222.9,178.6t-12.58,19Q220,195.44,231.57,188Zm22.61-46.41q15-3.73,28.39-18.36,4.59-8.84,7.48-15.81-10.55,2-21.67,13T254.18,141.54Zm69.66-64.77-2.89.6c-1.36.28-2.55.53-3.57.76a11.6,11.6,0,0,1-2.38.34,2.18,2.18,0,0,1-2.21-1.1,1.71,1.71,0,0,1,.68-2.13Q330,58.76,333.7,47.53q1.35-4.24,2.72-4.25.84,0,8.84,2.89,5.78,2.2,2.21,10.71-4.08,9-14.79,16.32A21.08,21.08,0,0,1,323.84,76.77Zm50.48,80.06a4,4,0,0,1-1.87-.25c-.23-.17-.17-.77.17-1.79q10-23.11,20.06-49.64-20.74,6-44.54,11.9a304.74,304.74,0,0,0-22.95,31.11c-1.82,3.06-3.57,4.59-5.27,4.59q-3.57,0-10.54-7.31-6.63-6.63,2.89-18.87,16-20.75,40.37-45.65t46.5-44.62q7.82-6.79,11.05-6.8a6.78,6.78,0,0,1,2.46.59c1,.4,2.47,1,4.51,1.7s4.25,1.45,6.63,2.13c3.28.91,5,2.66,5.27,5.27s-.8,7.08-3.06,13.43q-6,18-12.75,35.7c.22,3,.34,5.16.34,6.63a6.1,6.1,0,0,1-.26,2A4,4,0,0,1,412,98.52a13.34,13.34,0,0,1-3.48,1.7q-6.81,17-13.94,32-9.36,19.55-13.26,23.29Q379.58,156.83,374.32,156.83Zm-13.09-54.57.85-.17Q378.57,97.34,398,90.87q6.45-18,12.58-36.89Q380.1,81.86,361.23,102.26Zm46.71,47.26q-3.75,0-9.18-3.74-5.61-3.92-5.61-8.67,0-7.14,11.9-23,15-20.23,19.72-29.24c.45-.91,1.58-1.3,3.4-1.19a22.92,22.92,0,0,1,9.18,2.38q4.25,2.39,2,11.22a189.56,189.56,0,0,1,27.37-18.7q4.59-2.55,5.44-2.55c1.24,0,1.87,1.47,1.87,4.42,0,1.25-1.08,2.66-3.23,4.25Q444.32,104,419,138.47a104,104,0,0,1-7.23,9.27A5.38,5.38,0,0,1,407.94,149.52Zm63.07,1q-9.36,0-17.17-11-2.38-2.2-.85-9.35t7.31-16q3.22-4.93,13.09-18.7-6.47.51-7.48-2.21a13.17,13.17,0,0,1-1.19-6c0-.91,1-1.53,3.06-1.87q5.27-.68,13.94-1.53Q496,63.85,500.25,55.85a49.51,49.51,0,0,1,2.55-4.34,1.9,1.9,0,0,1,1.53-.93c1.58,0,4.42,1,8.5,3.06q6.63,3.22,6.63,8,0,4.59-9.52,19.21,2.37-.34,6.2-.85t6.63-.85c1.87-.23,3.49-.4,4.85-.51a8.51,8.51,0,0,1,2.89.08c.45.17.56.6.34,1.28a8.78,8.78,0,0,1-1.7,4.25q-1.53,1.7-7.82,3.23-1,.16-18.19,3.57Q480.7,123.51,474.24,138a14.32,14.32,0,0,0,2.72.34q10.53,0,32.47-16a.69.69,0,0,1,.85-.08c.22.17.28.48.17.93a27.27,27.27,0,0,1-3.23,7,35.56,35.56,0,0,1-6.12,6.29Q483.42,150.55,471,150.54Z"/></g></g></svg>